# xmcd
#
# Track frame offsets:
#	182
#	8805
#	20067
#	31585
#	44925
#	57340
#	67610
#	79267
#	91860
#	102790
#	115230
#	128175
#	140245
#	150180
#	162410
#	172062
#	185012
#	195295
#	205767
#	216665
#	224820
#	235032
#	246557
#	256140
#	268392
#
# Disc length: 3721 seconds
#
# Revision: 1
# Processed by: cddbd v1.5.1PL0 Copyright (c) Steve Scherf et al.
# Submitted via: audiograbber 1.83.01
#
DISCID=730e8719
DTITLE=Various Artsts - Come Go With Us
DYEAR=1900
DGENRE=Northern Soul
TTITLE0=Gloria Jones - Come Go With Me
TTITLE1=Carl Spencer - Cover Girl
TTITLE2=The Drapers - You've Got to Look Up
TTITLE3=Jimmy Breedlove - I Can't Help Loving You
TTITLE4=Jerry Cook - I Hurt on the Other Side
TTITLE5=Barbara Banks - River of Tears
TTITLE6=The Natureboys - Watch Yourself
TTITLE7=Charles Hodges - What's Gonna Happen To Me
TTITLE8=Alexander Patton - No More Dreams
TTITLE9=T J Williams and Two Shades of Love - Baby I Need You
TTITLE10=Little Rose Little - You've Got the Love
TTITLE11=The Inverts - Time Will Change
TTITLE12=The Thieves - I'm Not the One
TTITLE13=Marv Johnson - With All That's in Me
TTITLE14=Tommy Mosley - You Lied, I Cried, Love Died
TTITLE15=Donald Height - She Blew A Good Thing
TTITLE16=The Themes - No Explanation Needed
TTITLE17=Maria Tynes - Queen is on Her Knees
TTITLE18=The Madlads - Don't Cry at the Party
TTITLE19=Tommy Dodson - One Day Love
TTITLE20=The Showmen - The Wrong Girl
TTITLE21=The Turnarounds - Can't Take No More
TTITLE22=Lena and The Deltanettes - Turn Around Baby
TTITLE23=The Jive Five (featuring Richard Fisher) - You're a Puzzle
TTITLE24=George Smith - Pretty Little Girl
EXTD=
EXTT0=
EXTT1=
EXTT2=
EXTT3=
EXTT4=
EXTT5=
EXTT6=
EXTT7=
EXTT8=
EXTT9=
EXTT10=
EXTT11=
EXTT12=
EXTT13=
EXTT14=
EXTT15=
EXTT16=
EXTT17=
EXTT18=
EXTT19=
EXTT20=
EXTT21=
EXTT22=
EXTT23=
EXTT24=
PLAYORDER=
